<svg width="411" height="277" viewBox="0 0 411 277" fill="none" xmlns="www.w3.org/2000/svg">
<path d="M75.3157 62.0015L75.714 62.73C76.1586 63.5555 76.8252 64.2331 77.6348 64.6821L78.3462 65.0901L77.6348 65.4907C76.8252 65.9397 76.1586 66.6173 75.714 67.4429L75.3157 68.1713L74.9173 67.4429C74.4728 66.6173 73.8061 65.9397 72.9965 65.4907L72.2852 65.0901L72.9965 64.6821C73.8061 64.2331 74.4728 63.5555 74.9173 62.73L75.3157 62.0015Z" fill="#EBEBEB"/>
<path d="M371.118 155.619L371.517 156.348C371.961 157.173 372.628 157.851 373.438 158.3L374.149 158.7L373.438 159.101C372.628 159.55 371.961 160.228 371.517 161.053L371.118 161.782L370.72 161.053C370.275 160.228 369.609 159.55 368.799 159.101L368.088 158.7L368.799 158.3C369.609 157.851 370.275 157.173 370.72 156.348L371.118 155.619Z" fill="#EBEBEB"/>
<path d="M329.104 250.898L329.815 252.165C330.572 253.592 331.716 254.763 333.109 255.538L334.347 256.266L333.109 256.958C331.717 257.735 330.574 258.906 329.815 260.331L329.104 261.598L328.428 260.331C327.67 258.906 326.526 257.735 325.134 256.958L323.896 256.266L325.134 255.538C326.527 254.763 327.671 253.592 328.428 252.165L329.104 250.898Z" fill="#EBEBEB"/>
<path d="M141.873 270.39L142.272 271.119C142.721 271.943 143.389 272.62 144.2 273.071L144.911 273.472L144.2 273.872C143.388 274.324 142.719 275.004 142.272 275.832L141.873 276.56L141.482 275.832C141.035 275.004 140.366 274.324 139.554 273.872L138.843 273.472L139.554 273.071C140.364 272.62 141.033 271.943 141.482 271.119L141.873 270.39Z" fill="#EBEBEB"/>
<path d="M49.7555 163.792C66.5084 163.792 80.0892 149.886 80.0892 132.732C80.0892 115.578 66.5084 101.672 49.7555 101.672C33.0027 101.672 19.4219 115.578 19.4219 132.732C19.4219 149.886 33.0027 163.792 49.7555 163.792Z" fill="#EBEBEB"/>
<path d="M40.8634 147.497C43.5979 147.497 45.8147 145.227 45.8147 142.427C45.8147 139.627 43.5979 137.357 40.8634 137.357C38.1289 137.357 35.9121 139.627 35.9121 142.427C35.9121 145.227 38.1289 147.497 40.8634 147.497Z" fill="#F5F5F5"/>
<path d="M38.7929 127.808C38.7859 128.382 38.6131 128.942 38.2962 129.417C37.9793 129.891 37.5324 130.259 37.0119 130.474C36.4914 130.689 35.9204 130.741 35.3708 130.625C34.8211 130.508 34.3174 130.228 33.923 129.819C33.5286 129.41 33.2611 128.891 33.1542 128.327C33.0472 127.762 33.1056 127.178 33.322 126.648C33.5384 126.118 33.9031 125.665 34.3702 125.346C34.8374 125.028 35.3861 124.858 35.9474 124.858C36.3241 124.858 36.697 124.934 37.0446 125.083C37.3922 125.232 37.7075 125.449 37.9722 125.724C38.2369 125.998 38.4457 126.324 38.5866 126.682C38.7275 127.039 38.7977 127.422 38.7929 127.808Z" fill="#F5F5F5"/>
<path d="M20.3253 140.286C20.4605 140.825 -5.64042 166.466 1.11778 171.929C7.87598 177.392 36.1466 163.377 60.2698 143.425C84.3931 123.474 106.439 99.2388 100.406 92.8287C94.3738 86.4185 64.2252 105.401 64.2252 105.401L67.8248 107.754C67.8248 107.754 86.0577 95.7788 91.82 100.426C97.5822 105.074 81.1491 123.233 57.9507 140.57C34.7523 157.906 12.3364 170.086 8.86481 165.336C5.39323 160.587 21.805 144.736 21.805 144.736L20.3253 140.286Z" fill="#F5F5F5"/>
<path d="M362.191 4.32454C358.321 2.0227 353.32 4.0623 349.848 6.94688C346.376 9.83146 343.446 13.5974 339.319 15.3675C336.687 16.4966 333.678 16.7588 331.352 18.4415C327.56 21.1804 326.891 26.6946 327.546 31.4002C328.2 36.1059 329.815 40.7751 329.253 45.4953C328.834 48.9481 327.254 52.4154 328.108 55.788C329.31 60.5082 334.617 62.7591 337.199 66.8674C339.056 69.7811 339.561 73.7802 342.329 75.849C345.537 78.2455 349.997 76.8469 353.96 77.2111C358.833 77.6627 363.002 80.8533 367.633 82.4704C371.356 83.7143 375.333 83.9378 379.168 83.1186C383.002 82.2994 386.559 80.466 389.487 77.8011C392.425 75.0622 394.594 71.5512 397.483 68.7613C399.958 66.3648 402.96 64.5 404.988 61.7029C407.015 58.9057 407.833 55.6351 408.666 52.3717C409.896 47.6078 411.127 42.6472 410.231 37.8031C408.808 30.0745 402.363 24.4437 399.012 17.3634C397.703 14.5808 396.743 11.4486 394.353 9.64935C391.784 7.74087 388.306 7.90112 385.297 6.85947C380.978 5.40261 377.72 1.42539 373.31 0.303613C371.272 -0.195654 369.137 -0.0772158 367.164 0.644494C365.191 1.3662 363.465 2.66002 362.198 4.36824" fill="#FAFAFA"/>
<path d="M376.838 74.1237C394.402 69.4188 404.916 51.025 400.321 33.0399C395.727 15.0548 377.763 4.28912 360.199 8.994C342.634 13.6989 332.12 32.0927 336.715 50.0778C341.31 68.0629 359.274 78.8286 376.838 74.1237Z" fill="#EBEBEB"/>
<path d="M358.826 47.127C358.172 47.9824 357.284 48.6199 356.276 48.9587C355.268 49.2976 354.184 49.3227 353.162 49.0307C352.14 48.7388 351.225 48.143 350.534 47.3187C349.843 46.4944 349.406 45.4787 349.278 44.4C349.151 43.3213 349.339 42.2282 349.818 41.2588C350.297 40.2895 351.047 39.4876 351.971 38.9545C352.896 38.4214 353.954 38.1811 355.012 38.264C356.07 38.3469 357.081 38.7493 357.915 39.4202C358.47 39.8647 358.933 40.4168 359.279 41.0448C359.625 41.6728 359.847 42.3645 359.931 43.0803C360.016 43.7961 359.962 44.5219 359.772 45.2163C359.582 45.9107 359.261 46.56 358.826 47.127Z" fill="#F5F5F5"/>
<path d="M362.39 29.8778C362.01 30.3772 361.494 30.7498 360.907 30.9484C360.32 31.1471 359.689 31.1629 359.093 30.9939C358.497 30.8249 357.964 30.4786 357.56 29.9989C357.157 29.5192 356.902 28.9277 356.827 28.2993C356.752 27.671 356.861 27.034 357.14 26.4691C357.419 25.9042 357.855 25.4368 358.394 25.1261C358.933 24.8154 359.549 24.6754 360.166 24.7238C360.782 24.7722 361.37 25.0068 361.857 25.398C362.506 25.9207 362.927 26.6855 363.027 27.5251C363.127 28.3647 362.898 29.2107 362.39 29.8778Z" fill="#F5F5F5"/>
<path d="M389.703 217.096C398.407 208.184 398.407 193.734 389.703 184.822C381 175.909 366.888 175.909 358.184 184.822C349.48 193.734 349.48 208.184 358.184 217.096C366.888 226.009 381 226.009 389.703 217.096Z" fill="#F5F5F5"/>
<path d="M377.002 193.905C377.019 193.17 377.249 192.456 377.662 191.854C378.075 191.252 378.653 190.789 379.323 190.523C379.993 190.257 380.725 190.2 381.426 190.36C382.128 190.52 382.767 190.89 383.264 191.421C383.76 191.953 384.092 192.624 384.216 193.349C384.341 194.073 384.253 194.819 383.963 195.493C383.674 196.166 383.196 196.737 382.59 197.132C381.984 197.528 381.277 197.731 380.559 197.715C380.081 197.705 379.61 197.598 379.172 197.401C378.734 197.203 378.339 196.92 378.009 196.566C377.678 196.212 377.419 195.795 377.246 195.338C377.074 194.882 376.991 194.395 377.002 193.905Z" fill="#EBEBEB"/>
<path d="M381.91 204.774C381.91 204.338 382.038 203.913 382.275 203.552C382.513 203.191 382.851 202.912 383.245 202.749C383.639 202.586 384.072 202.547 384.488 202.637C384.903 202.728 385.283 202.943 385.579 203.256C385.874 203.569 386.072 203.965 386.146 204.394C386.22 204.822 386.167 205.264 385.995 205.662C385.822 206.059 385.538 206.395 385.178 206.626C384.817 206.858 384.398 206.973 383.973 206.959C383.42 206.94 382.895 206.701 382.51 206.294C382.125 205.886 381.91 205.341 381.91 204.774Z" fill="#EBEBEB"/>
<path d="M320.147 135.617L320.823 136.884C321.584 138.308 322.727 139.478 324.117 140.257L325.355 140.949L324.117 141.677C322.727 142.456 321.584 143.626 320.823 145.05L320.147 146.317L319.436 145.05C318.675 143.626 317.532 142.456 316.142 141.677L314.904 140.949L316.142 140.257C317.532 139.478 318.675 138.308 319.436 136.884L320.147 135.617Z" fill="#EBEBEB"/>
<path d="M171.155 106.437L156.981 113.585C148.621 117.801 145.181 128.158 149.299 136.719L173.139 186.285C177.256 194.846 187.371 198.368 195.732 194.152L209.906 187.004C218.267 182.788 221.706 172.43 217.589 163.869L193.749 114.303C189.631 105.743 179.516 102.221 171.155 106.437Z" fill="#58A4B0"/>
<path opacity="0.4" d="M171.154 106.264L156.98 113.412C148.619 117.628 145.18 127.986 149.297 136.547L173.137 186.113C177.255 194.674 187.37 198.196 195.73 193.979L209.905 186.832C218.265 182.615 221.705 172.258 217.587 163.697L193.747 114.131C189.63 105.57 179.514 102.048 171.154 106.264Z" fill="black"/>
<path d="M226.415 272.605C226.251 272.727 226.071 272.825 225.881 272.896L224.252 273.625C223.541 273.945 222.602 274.258 221.52 274.674L219.742 275.213C219.109 275.417 218.419 275.584 217.686 275.744C214.135 276.584 210.495 276.968 206.852 276.888C202.005 276.817 197.207 275.883 192.674 274.127C190.048 273.102 187.531 271.806 185.161 270.259C182.62 268.509 180.298 266.447 178.247 264.119C173.683 258.966 170.544 252.659 169.155 245.85C168.408 242.171 168.244 238.393 168.671 234.661C169.13 230.757 170.303 226.976 172.129 223.516C174.021 219.949 176.503 216.746 179.463 214.046C182.507 211.245 186.037 209.054 189.871 207.585C193.737 206.138 197.858 205.544 201.964 205.844C203.982 206 205.966 206.467 207.848 207.228C209.733 207.986 211.424 209.174 212.792 210.703C214.146 212.218 215.08 214.077 215.495 216.086C215.911 218.087 215.647 220.174 214.748 222.001C214.321 222.893 213.765 223.713 213.098 224.434C212.46 225.148 211.744 225.783 210.963 226.328C209.444 227.391 207.778 228.214 206.019 228.768C199.843 230.447 193.302 230.037 187.372 227.599C181.441 225.161 176.439 220.827 173.11 215.241C171.802 212.97 170.822 210.516 170.201 207.957C168.711 202.031 168.981 195.784 170.976 190.016C171.755 187.797 172.799 185.685 174.085 183.729C174.54 183.066 174.924 182.593 175.173 182.272C175.288 182.099 175.422 181.94 175.572 181.799C175.489 181.991 175.384 182.172 175.259 182.338C175.045 182.688 174.69 183.183 174.27 183.853C171.169 188.996 169.634 194.968 169.859 201.008C169.934 203.297 170.266 205.57 170.848 207.782C171.473 210.262 172.448 212.635 173.744 214.826C176.764 219.853 181.215 223.814 186.499 226.175C189.409 227.52 192.518 228.362 195.697 228.666C199.045 228.991 202.424 228.67 205.656 227.719C207.31 227.192 208.877 226.411 210.302 225.403C211.022 224.902 211.681 224.315 212.265 223.654C212.863 223.008 213.36 222.271 213.738 221.469C214.526 219.857 214.755 218.017 214.385 216.254C213.998 214.44 213.149 212.764 211.924 211.395C210.663 209.998 209.109 208.912 207.378 208.219C205.611 207.495 203.748 207.046 201.851 206.886C197.912 206.61 193.962 207.186 190.255 208.576C182.92 211.457 176.837 216.936 173.11 224.019C171.337 227.351 170.195 230.996 169.746 234.763C169.321 238.379 169.467 242.041 170.179 245.609C171.508 252.251 174.535 258.412 178.951 263.463C180.939 265.747 183.192 267.775 185.659 269.502C187.964 271.054 190.417 272.362 192.98 273.406C195.325 274.325 197.743 275.036 200.207 275.533C205.967 276.62 211.879 276.556 217.615 275.344C218.326 275.198 219.038 275.052 219.664 274.863L221.442 274.375C222.524 274.003 223.455 273.719 224.188 273.443L225.853 272.794C226.034 272.713 226.222 272.65 226.415 272.605Z" fill="#263238"/>
<path d="M181.724 169.008C181.724 169.066 180.899 169.401 179.59 170.078C176.18 171.841 173.174 174.324 170.769 177.363C169.844 178.521 169.346 179.3 169.289 179.271C169.359 179.06 169.459 178.861 169.588 178.681C169.885 178.177 170.211 177.691 170.562 177.224C172.897 174.038 175.974 171.501 179.512 169.845C180.041 169.591 180.585 169.37 181.141 169.183C181.325 169.094 181.522 169.035 181.724 169.008Z" fill="#263238"/>
<path d="M175.344 178.82C175.344 178.82 175.451 178.572 175.821 178.302C176.358 177.922 177.02 177.773 177.663 177.887C178.141 177.989 178.582 178.221 178.941 178.56C179.299 178.899 179.561 179.331 179.698 179.81C179.852 180.408 179.817 181.041 179.597 181.618C179.377 182.194 178.984 182.683 178.474 183.015C177.946 183.374 177.307 183.517 176.681 183.416C176.111 183.332 175.577 183.079 175.145 182.688C174.771 182.363 174.496 181.934 174.355 181.453C174.214 180.973 174.211 180.46 174.348 179.978C174.51 179.336 174.885 178.773 175.408 178.383C175.589 178.229 175.808 178.131 176.041 178.098C176.041 178.098 175.821 178.222 175.5 178.499C175.046 178.901 174.732 179.443 174.604 180.043C174.502 180.474 174.52 180.924 174.654 181.345C174.788 181.766 175.035 182.14 175.365 182.425C175.754 182.787 176.246 183.011 176.769 183.064C177.292 183.116 177.818 182.995 178.268 182.717C178.709 182.426 179.052 182.002 179.25 181.504C179.447 181.006 179.489 180.458 179.37 179.934C179.277 179.573 179.104 179.24 178.863 178.96C178.623 178.679 178.323 178.46 177.985 178.319C177.648 178.178 177.284 178.118 176.92 178.146C176.557 178.173 176.205 178.287 175.892 178.477C175.529 178.645 175.372 178.841 175.344 178.82Z" fill="#263238"/>
<path d="M171.155 106.437L156.981 113.585C148.621 117.801 145.181 128.158 149.299 136.719L173.139 186.285C177.256 194.846 187.371 198.368 195.732 194.152L209.906 187.004C218.267 182.788 221.706 172.43 217.589 163.869L193.749 114.303C189.631 105.743 179.516 102.221 171.155 106.437Z" fill="#58A4B0"/>
<path opacity="0.4" d="M171.154 106.264L156.98 113.412C148.619 117.628 145.18 127.986 149.297 136.547L173.137 186.113C177.255 194.674 187.37 198.196 195.73 193.979L209.905 186.832C218.265 182.615 221.705 172.258 217.587 163.697L193.747 114.131C189.63 105.57 179.514 102.048 171.154 106.264Z" fill="black"/>
<path d="M226.415 272.605C226.251 272.727 226.071 272.825 225.881 272.896L224.252 273.625C223.541 273.945 222.602 274.258 221.52 274.674L219.742 275.213C219.109 275.417 218.419 275.584 217.686 275.744C214.135 276.584 210.495 276.968 206.852 276.888C202.005 276.817 197.207 275.883 192.674 274.127C190.048 273.102 187.531 271.806 185.161 270.259C182.62 268.509 180.298 266.447 178.247 264.119C173.683 258.966 170.544 252.659 169.155 245.85C168.408 242.171 168.244 238.393 168.671 234.661C169.13 230.757 170.303 226.976 172.129 223.516C174.021 219.949 176.503 216.746 179.463 214.046C182.507 211.245 186.037 209.054 189.871 207.585C193.737 206.138 197.858 205.544 201.964 205.844C203.982 206 205.966 206.467 207.848 207.228C209.733 207.986 211.424 209.174 212.792 210.703C214.146 212.218 215.08 214.077 215.495 216.086C215.911 218.087 215.647 220.174 214.748 222.001C214.321 222.893 213.765 223.713 213.098 224.434C212.46 225.148 211.744 225.783 210.963 226.328C209.444 227.391 207.778 228.214 206.019 228.768C199.843 230.447 193.302 230.037 187.372 227.599C181.441 225.161 176.439 220.827 173.11 215.241C171.802 212.97 170.822 210.516 170.201 207.957C168.711 202.031 168.981 195.784 170.976 190.016C171.755 187.797 172.799 185.685 174.085 183.729C174.54 183.066 174.924 182.593 175.173 182.272C175.288 182.099 175.422 181.94 175.572 181.799C175.489 181.991 175.384 182.172 175.259 182.338C175.045 182.688 174.69 183.183 174.27 183.853C171.169 188.996 169.634 194.968 169.859 201.008C169.934 203.297 170.266 205.57 170.848 207.782C171.473 210.262 172.448 212.635 173.744 214.826C176.764 219.853 181.215 223.814 186.499 226.175C189.409 227.52 192.518 228.362 195.697 228.666C199.045 228.991 202.424 228.67 205.656 227.719C207.31 227.192 208.877 226.411 210.302 225.403C211.022 224.902 211.681 224.315 212.265 223.654C212.863 223.008 213.36 222.271 213.738 221.469C214.526 219.857 214.755 218.017 214.385 216.254C213.998 214.44 213.149 212.764 211.924 211.395C210.663 209.998 209.109 208.912 207.378 208.219C205.611 207.495 203.748 207.046 201.851 206.886C197.912 206.61 193.962 207.186 190.255 208.576C182.92 211.457 176.837 216.936 173.11 224.019C171.337 227.351 170.195 230.996 169.746 234.763C169.321 238.379 169.467 242.041 170.179 245.609C171.508 252.251 174.535 258.412 178.951 263.463C180.939 265.747 183.192 267.775 185.659 269.502C187.964 271.054 190.417 272.362 192.98 273.406C195.325 274.325 197.743 275.036 200.207 275.533C205.967 276.62 211.879 276.556 217.615 275.344C218.326 275.198 219.038 275.052 219.664 274.863L221.442 274.375C222.524 274.003 223.455 273.719 224.188 273.443L225.853 272.794C226.034 272.713 226.222 272.65 226.415 272.605Z" fill="#263238"/>
<path d="M181.724 169.008C181.724 169.066 180.899 169.401 179.59 170.078C176.18 171.841 173.174 174.324 170.769 177.363C169.844 178.521 169.346 179.3 169.289 179.271C169.359 179.06 169.459 178.861 169.588 178.681C169.885 178.177 170.211 177.691 170.562 177.224C172.897 174.038 175.974 171.501 179.512 169.845C180.041 169.591 180.585 169.37 181.141 169.183C181.325 169.094 181.522 169.035 181.724 169.008Z" fill="#263238"/>
<path d="M175.344 178.82C175.344 178.82 175.451 178.572 175.821 178.302C176.358 177.922 177.02 177.773 177.663 177.887C178.141 177.989 178.582 178.221 178.941 178.56C179.299 178.899 179.561 179.331 179.698 179.81C179.852 180.408 179.817 181.041 179.597 181.618C179.377 182.194 178.984 182.683 178.474 183.015C177.946 183.374 177.307 183.517 176.681 183.416C176.111 183.332 175.577 183.079 175.145 182.688C174.771 182.363 174.496 181.934 174.355 181.453C174.214 180.973 174.211 180.46 174.348 179.978C174.51 179.336 174.885 178.773 175.408 178.383C175.589 178.229 175.808 178.131 176.041 178.098C176.041 178.098 175.821 178.222 175.5 178.499C175.046 178.901 174.732 179.443 174.604 180.043C174.502 180.474 174.52 180.924 174.654 181.345C174.788 181.766 175.035 182.14 175.365 182.425C175.754 182.787 176.246 183.011 176.769 183.064C177.292 183.116 177.818 182.995 178.268 182.717C178.709 182.426 179.052 182.002 179.25 181.504C179.447 181.006 179.489 180.458 179.37 179.934C179.277 179.573 179.104 179.24 178.863 178.96C178.623 178.679 178.323 178.46 177.985 178.319C177.648 178.178 177.284 178.118 176.92 178.146C176.557 178.173 176.205 178.287 175.892 178.477C175.529 178.645 175.372 178.841 175.344 178.82Z" fill="#263238"/>
<path d="M183.07 109.357C181.697 106.567 180.487 104.061 180.487 104.061C180.487 104.061 185.609 100.841 183.383 95.2033C181.156 89.5652 174.938 77.0873 174.938 77.0873L162.845 76.9707L155.944 90.6433L168.842 116.728C169.788 118.622 171.419 120.062 173.387 120.743C175.355 121.423 177.504 121.289 179.378 120.37C180.333 119.903 181.188 119.246 181.892 118.437C182.597 117.627 183.137 116.682 183.481 115.657C183.824 114.631 183.965 113.546 183.895 112.464C183.824 111.383 183.544 110.326 183.07 109.357Z" fill="#FFBE9D"/>
<path d="M178.047 86.8628C178.111 87.0006 178.133 87.1546 178.112 87.3054C178.09 87.4562 178.025 87.5971 177.926 87.7104C177.826 87.8236 177.696 87.9041 177.552 87.9418C177.407 87.9794 177.255 87.9725 177.115 87.9218C176.975 87.8712 176.852 87.7791 176.762 87.6573C176.673 87.5354 176.621 87.3891 176.613 87.237C176.604 87.0848 176.64 86.9334 176.715 86.8021C176.791 86.6707 176.903 86.5651 177.037 86.4986C177.126 86.4542 177.224 86.4283 177.323 86.4226C177.422 86.4169 177.522 86.4314 177.616 86.4652C177.71 86.4991 177.796 86.5516 177.87 86.6199C177.944 86.6881 178.004 86.7707 178.047 86.8628Z" fill="#263238"/>
<path d="M178.361 85.7775C178.311 85.9086 177.6 85.7192 176.846 86.0324C176.091 86.3456 175.7 86.9867 175.579 86.9284C175.458 86.8701 175.537 86.688 175.7 86.3966C175.923 86.0195 176.26 85.7278 176.661 85.5662C177.058 85.4007 177.497 85.3701 177.913 85.4788C178.226 85.5735 178.382 85.7119 178.361 85.7775Z" fill="#263238"/>
<path d="M170.116 90.7453C170.193 90.9302 170.197 91.1384 170.127 91.3263C170.058 91.5143 169.92 91.6675 169.743 91.754C169.566 91.8405 169.363 91.8535 169.177 91.7904C168.99 91.7274 168.835 91.593 168.743 91.4154C168.695 91.3225 168.666 91.2206 168.657 91.1159C168.648 91.0111 168.661 90.9056 168.693 90.8058C168.725 90.7059 168.777 90.6138 168.845 90.5349C168.912 90.4561 168.995 90.3921 169.088 90.3468C169.181 90.3016 169.281 90.276 169.384 90.2717C169.487 90.2673 169.589 90.2842 169.685 90.3215C169.781 90.3587 169.869 90.4154 169.943 90.4883C170.017 90.5611 170.076 90.6485 170.116 90.7453Z" fill="#263238"/>
<path d="M170.179 89.7692C170.136 89.9076 169.425 89.711 168.671 90.0315C167.917 90.352 167.525 90.9857 167.404 90.9202C167.284 90.8546 167.362 90.6798 167.525 90.3957C167.748 90.0166 168.085 89.7224 168.486 89.558C168.884 89.3939 169.323 89.3658 169.738 89.4779C170.051 89.5653 170.207 89.711 170.179 89.7692Z" fill="#263238"/>
<path d="M175.813 94.8464C176.163 94.5588 176.545 94.3143 176.951 94.118C177.129 94.016 177.307 93.8994 177.278 93.7392C177.206 93.5163 177.07 93.3209 176.887 93.1783L175.656 91.8598C174.789 90.9201 174.013 90.0533 173.465 89.4123C173.143 89.0899 172.861 88.7278 172.626 88.3342C172.995 88.5973 173.332 88.9055 173.629 89.252C174.227 89.8494 175.052 90.7089 175.891 91.6267L177.108 92.967C177.332 93.1504 177.488 93.4078 177.549 93.6955C177.554 93.776 177.54 93.8566 177.507 93.9302C177.475 94.0038 177.426 94.0683 177.364 94.118C177.272 94.1963 177.168 94.2601 177.058 94.3073C176.666 94.5392 176.248 94.7202 175.813 94.8464Z" fill="#263238"/>
<path d="M173.715 96.7549C175.115 96.9642 176.545 96.796 177.862 96.2668C177.772 96.7855 177.511 97.2569 177.122 97.6027C176.734 97.9485 176.242 98.148 175.728 98.168C173.857 98.2627 173.715 96.7549 173.715 96.7549Z" fill="white"/>
<path d="M180.466 104.017C177.87 105.15 175.013 105.501 172.229 105.03C172.229 105.03 175.842 108.235 181.1 105.387L180.466 104.017Z" fill="#EB996E"/>
<path d="M150.104 99.0786L150.204 99.0203C149.832 97.9812 149.511 96.9236 149.243 95.8516C146.832 83.0022 155.646 76.0748 157.588 75.1278C159.672 74.108 162.767 71.1579 170.699 74.21C171.912 74.6645 173.053 75.3003 174.085 76.0966C175.944 77.0258 177.562 78.391 178.809 80.0812C179.911 81.589 180.267 82.7108 180.231 82.7399C180.196 82.7691 179.634 81.7565 178.474 80.3798C177.8 79.5665 177.039 78.8334 176.205 78.1945C177.648 80.0718 178.481 82.3641 178.588 84.7504L177.307 84.3425L168.515 86.098C168.131 83.6359 165.961 81.3996 164.865 80.4017H164.794C167.056 89.3686 158.626 94.5332 158.626 94.5332L165.491 109.983C153.981 112.766 150.104 99.0786 150.104 99.0786Z" fill="#263238"/>
<path d="M162.013 103.362C161.701 103.851 161.235 104.215 160.692 104.393C160.149 104.571 159.562 104.551 159.032 104.338C158.51 104.103 158.05 103.746 157.688 103.296C157.326 102.845 157.072 102.314 156.947 101.745C156.742 101.065 156.795 100.331 157.097 99.6904C157.396 99.3248 157.778 99.04 158.21 98.861C158.641 98.6819 159.109 98.614 159.572 98.6633L162.013 103.362Z" fill="#FFBE9D"/>
<path d="M160.369 103.027C160.369 102.947 160.056 103.027 159.657 102.954C159.39 102.907 159.139 102.789 158.931 102.611C158.722 102.434 158.563 102.203 158.469 101.942C158.375 101.681 158.35 101.4 158.396 101.126C158.443 100.852 158.559 100.596 158.733 100.382C159.01 100.033 159.287 99.9017 159.259 99.8289C159.231 99.756 158.896 99.7633 158.476 100.12C158.211 100.366 158.023 100.688 157.937 101.044C157.851 101.4 157.872 101.774 157.996 102.119C158.12 102.463 158.342 102.761 158.633 102.975C158.924 103.189 159.271 103.308 159.629 103.318C160.134 103.311 160.404 103.078 160.369 103.027Z" fill="#EB996E"/>
<path d="M192.239 83.3372C192.239 83.3372 192.204 83.1988 192.154 82.922C192.104 82.6452 192.026 82.1936 191.934 81.6837C191.884 81.4069 191.834 81.1082 191.77 80.7732C191.706 80.4381 191.585 80.0447 191.485 79.6951C191.267 78.7935 190.984 77.9096 190.639 77.0509C189.76 74.6673 188.532 72.4346 186.997 70.4295C184.77 67.4794 181.958 65.0455 178.747 63.2878C175.536 61.5302 171.998 60.4885 168.365 60.2315C167.278 60.1514 166.187 60.1514 165.1 60.2315C164.545 60.2752 163.99 60.2897 163.428 60.3626L161.756 60.654C161.472 60.7122 161.187 60.7414 160.91 60.8142L160.078 61.0546C159.516 61.2149 158.954 61.3533 158.392 61.5426C157.269 61.9562 156.174 62.4428 155.112 62.9995C154.024 63.5622 152.971 64.1947 151.961 64.8934C151.463 65.2576 150.986 65.6728 150.488 66.0589C149.982 66.4431 149.507 66.8669 149.065 67.3264C147.159 69.1057 145.554 71.1953 144.313 73.5107L143.822 74.3848L143.403 75.3027L142.99 76.2278C142.845 76.534 142.721 76.8504 142.62 77.1747C142.399 77.8157 142.186 78.4641 141.966 79.1196C141.745 79.7752 141.653 80.4599 141.496 81.1301C140.358 86.679 141.02 92.4568 143.381 97.5853C143.687 98.2045 143.993 98.8163 144.292 99.4355C144.591 100.055 145.003 100.594 145.366 101.169C145.539 101.459 145.732 101.737 145.942 102L146.554 102.801L147.166 103.602L147.842 104.331C148.73 105.302 149.681 106.212 150.687 107.055C151.697 107.857 152.76 108.587 153.867 109.24C154.397 109.58 154.951 109.88 155.525 110.136C156.094 110.398 156.649 110.682 157.225 110.916C158.364 111.361 159.531 111.729 160.718 112.015C161.876 112.294 163.049 112.498 164.232 112.627C164.815 112.678 165.399 112.678 165.975 112.707H166.843C167.127 112.707 167.412 112.707 167.704 112.664L169.397 112.547C169.959 112.489 170.506 112.372 171.054 112.285C172.128 112.105 173.189 111.847 174.227 111.513C178.044 110.307 181.53 108.195 184.4 105.35C186.778 103.017 188.696 100.238 190.048 97.1628C191.081 94.853 191.769 92.3976 192.09 89.8785C192.229 88.9625 192.302 88.0374 192.311 87.1105C192.311 86.7026 192.353 86.3311 192.353 85.9887L192.303 85.0709C192.303 84.5246 192.254 84.1094 192.239 83.8107C192.225 83.5121 192.239 83.3809 192.239 83.3809C192.264 83.5232 192.28 83.6666 192.289 83.8107C192.289 84.1021 192.346 84.5391 192.389 85.0636C192.389 85.3404 192.432 85.6536 192.46 85.9887C192.488 86.3238 192.46 86.7171 192.46 87.1105C192.463 88.044 192.398 88.9765 192.268 89.9004C191.976 92.4483 191.302 94.9348 190.269 97.2721C188.778 100.718 186.587 103.799 183.844 106.31C181.1 108.822 177.865 110.707 174.355 111.841C173.302 112.176 172.227 112.439 171.14 112.627C170.585 112.715 170.037 112.839 169.468 112.897L167.753 113.021C167.462 113.021 167.17 113.072 166.878 113.064H166.003C165.42 113.064 164.83 113.064 164.232 112.992C163.035 112.863 161.847 112.656 160.675 112.372C159.465 112.093 158.277 111.726 157.118 111.272C156.535 111.032 155.973 110.748 155.397 110.486C154.814 110.223 154.251 109.919 153.711 109.575C152.588 108.924 151.512 108.194 150.488 107.39C149.464 106.541 148.499 105.621 147.6 104.636L146.888 103.908L146.269 103.1L145.651 102.291C145.435 102.025 145.24 101.742 145.067 101.446L143.972 99.6832L143.047 97.8111C140.648 92.611 139.976 86.7504 141.133 81.1228C141.297 80.4381 141.453 79.7534 141.617 79.0759L142.279 77.1092C142.378 76.7784 142.504 76.4567 142.656 76.1476L143.075 75.208L143.495 74.2756L144 73.3942C145.256 71.0455 146.886 68.9282 148.823 67.1297C149.267 66.6658 149.742 66.2349 150.246 65.8404C150.751 65.4543 151.235 65.0391 151.747 64.6676C153.767 63.2644 155.958 62.1379 158.263 61.3168C158.833 61.1202 159.409 60.9818 159.971 60.8215L160.817 60.5811C161.095 60.5083 161.386 60.4791 161.671 60.4209L163.371 60.1368C163.933 60.0567 164.502 60.0494 165.057 59.9984C166.159 59.9218 167.264 59.9218 168.365 59.9984C172.036 60.2673 175.608 61.3334 178.845 63.1256C182.082 64.9179 184.909 67.3953 187.139 70.3931C188.673 72.4232 189.892 74.6836 190.753 77.0946C191.087 77.9621 191.361 78.8531 191.571 79.7606C191.67 80.154 191.777 80.4891 191.841 80.846C191.905 81.2029 191.941 81.487 191.983 81.7638C192.062 82.3029 192.126 82.7108 192.168 83.0094C192.211 83.3081 192.239 83.3372 192.239 83.3372Z" fill="#263238"/>
<path d="M151.306 81.9386C151.799 81.6681 152.224 81.2819 152.544 80.8116C152.865 80.3413 153.072 79.8002 153.15 79.2322C153.228 78.6643 153.173 78.0856 152.991 77.5432C152.809 77.0009 152.505 76.5102 152.102 76.1112C150.63 74.6543 148.09 74.7782 146.411 76.0383C144.822 77.4074 143.823 79.3621 143.63 81.4797C143.416 82.6816 143.514 83.9199 143.914 85.0709C144.117 85.6438 144.457 86.1555 144.904 86.5589C145.35 86.9623 145.888 87.2446 146.468 87.38C147.127 87.4479 147.791 87.34 148.397 87.0668C149.003 86.7936 149.53 86.3645 149.925 85.8211C150.709 84.7211 151.296 83.4882 151.661 82.179" fill="#263238"/>
<path d="M181.22 71.8208C181.17 71.879 180.238 70.9393 178.524 69.7083C177.518 68.9936 176.465 68.351 175.372 67.7853C174.031 67.1048 172.64 66.5348 171.211 66.0807C169.774 65.6468 168.306 65.3278 166.821 65.1265C165.606 64.9734 164.382 64.9101 163.158 64.9371C161.066 64.9808 159.786 65.2285 159.771 65.1556C160.061 65.0502 160.362 64.9793 160.668 64.9444C161.02 64.8708 161.377 64.8173 161.735 64.7841C162.148 64.7404 162.624 64.6749 163.158 64.6676C164.397 64.6056 165.638 64.6446 166.871 64.7841C168.379 64.9638 169.869 65.2757 171.324 65.7165C172.776 66.1775 174.185 66.7673 175.536 67.4793C176.635 68.066 177.689 68.7382 178.687 69.4898C179.121 69.803 179.477 70.1308 179.797 70.4003C180.117 70.6698 180.388 70.9248 180.601 71.1287C180.833 71.3341 181.04 71.5663 181.22 71.8208Z" fill="#455A64"/>
<path d="M183.51 75.7688C183.404 75.7688 183.197 75.1934 182.799 74.5451C182.401 73.8968 181.974 73.4306 182.045 73.3432C182.116 73.2557 182.678 73.6272 183.112 74.3411C183.546 75.055 183.61 75.7688 183.51 75.7688Z" fill="#455A64"/>
<path d="M144.448 81.538C144.505 82.3968 144.348 83.2563 143.993 84.0365C143.663 84.8701 143.44 85.7443 143.331 86.637C143.289 87.1503 143.364 87.6668 143.552 88.1448C143.746 88.6455 144.113 89.0553 144.583 89.2957C145.07 89.5041 145.613 89.5248 146.113 89.354C146.598 89.2 147.049 88.9528 147.443 88.6256C148.11 88.0492 148.653 87.3373 149.037 86.535C149.366 85.7731 149.605 84.9733 149.748 84.153C149.79 84.3793 149.79 84.6115 149.748 84.8377C149.677 85.4623 149.511 86.0718 149.257 86.6442C148.888 87.5074 148.336 88.2761 147.642 88.8951C147.225 89.2594 146.741 89.5365 146.22 89.7109C145.634 89.9121 144.996 89.8862 144.427 89.6381C143.869 89.3653 143.436 88.8825 143.218 88.2905C143.012 87.7588 142.934 87.1842 142.99 86.6151C143.115 85.6916 143.369 84.7913 143.744 83.9418C143.978 83.3785 144.166 82.7961 144.306 82.2008C144.341 81.9773 144.389 81.756 144.448 81.538Z" fill="#263238"/>
<path d="M156.321 122.891C156.321 122.891 187.623 181.719 192.823 188.253L235.101 169.008L209.491 123.976C207.185 119.878 203.934 116.42 200.023 113.904C196.113 111.387 191.66 109.889 187.053 109.539H186.755C176.703 108.869 154.806 120.021 156.321 122.891Z" fill="#58A4B0"/>
<path d="M222.288 146.477L222.146 146.558L221.712 146.769L220.019 147.548L213.659 150.411L203.991 154.716L198.151 157.302L196.607 157.987C196.318 158.106 196.006 158.158 195.694 158.138C195.383 158.118 195.079 158.026 194.807 157.87C194.275 157.558 193.815 157.133 193.455 156.624C193.09 156.125 192.78 155.585 192.531 155.015C190.681 151.919 188.789 148.554 186.96 145.021C185.538 142.238 184.186 139.485 182.948 136.789C182.336 135.449 181.748 134.123 181.184 132.812C180.601 131.525 180.221 130.15 180.06 128.74C179.937 127.364 180.295 125.988 181.07 124.858C181.815 123.84 182.716 122.952 183.738 122.228C188.122 118.962 193.218 116.841 198.585 116.051C199.701 115.891 200.576 115.818 201.167 115.789H201.878C201.956 115.781 202.035 115.781 202.113 115.789H201.885L201.21 115.847C200.619 115.898 199.751 115.993 198.642 116.175C195.508 116.69 192.459 117.651 189.586 119.03C187.604 119.981 185.719 121.131 183.958 122.461C182.969 123.171 182.095 124.037 181.369 125.025C180.648 126.089 180.318 127.379 180.437 128.667C180.6 130.038 180.975 131.373 181.547 132.623C182.102 133.927 182.699 135.252 183.318 136.593C184.549 139.273 185.886 142.019 187.323 144.802C189.152 148.328 191.03 151.686 192.872 154.774C193.302 155.868 194.046 156.803 195.006 157.455C195.234 157.59 195.49 157.669 195.753 157.685C196.016 157.701 196.279 157.655 196.522 157.55L198.072 156.872L203.913 154.315L213.609 150.09L220.012 147.33L221.733 146.601L222.174 146.426C222.238 146.485 222.288 146.47 222.288 146.477Z" fill="#263238"/>
<g opacity="0.7">
<path opacity="0.7" d="M190.981 130.241C190.981 130.64 190.866 131.03 190.649 131.362C190.433 131.694 190.125 131.952 189.765 132.105C189.405 132.258 189.008 132.298 188.626 132.22C188.244 132.142 187.893 131.95 187.617 131.668C187.342 131.385 187.154 131.026 187.078 130.634C187.002 130.243 187.041 129.837 187.19 129.469C187.339 129.1 187.592 128.785 187.916 128.563C188.24 128.341 188.621 128.223 189.011 128.223C189.533 128.223 190.034 128.436 190.404 128.814C190.774 129.192 190.981 129.706 190.981 130.241Z" fill="white"/>
</g>
<g opacity="0.7">
<path opacity="0.7" d="M194.922 138.902C194.922 139.301 194.806 139.691 194.589 140.023C194.373 140.355 194.065 140.613 193.705 140.766C193.345 140.919 192.949 140.959 192.567 140.881C192.184 140.803 191.833 140.611 191.558 140.329C191.282 140.046 191.094 139.687 191.018 139.295C190.942 138.904 190.981 138.498 191.13 138.13C191.28 137.761 191.532 137.446 191.856 137.224C192.18 137.002 192.561 136.884 192.951 136.884C193.474 136.884 193.975 137.097 194.344 137.475C194.714 137.853 194.922 138.367 194.922 138.902Z" fill="white"/>
</g>
<g opacity="0.7">
<path opacity="0.7" d="M197.682 149.347C198.77 149.347 199.652 148.444 199.652 147.33C199.652 146.215 198.77 145.312 197.682 145.312C196.593 145.312 195.711 146.215 195.711 147.33C195.711 148.444 196.593 149.347 197.682 149.347Z" fill="white"/>
</g>
<path d="M203.558 123.364C203.116 123.702 202.639 123.988 202.135 124.217C201.238 124.697 200.001 125.331 198.578 125.979C197.155 126.628 195.882 127.181 194.943 127.553C194.447 127.795 193.924 127.971 193.385 128.077C193.841 127.765 194.33 127.506 194.843 127.305L198.4 125.637L201.957 123.976C202.466 123.71 203.003 123.505 203.558 123.364Z" fill="#263238"/>
<path d="M208.68 131.858C208.167 132.177 207.623 132.44 207.058 132.644L203.088 134.371L199.126 136.134C198.594 136.414 198.036 136.638 197.461 136.804C197.945 136.442 198.468 136.136 199.019 135.893C200.008 135.376 201.388 134.706 202.939 134.021C204.489 133.336 205.919 132.776 206.965 132.39C207.517 132.152 208.092 131.974 208.68 131.858Z" fill="#263238"/>
<path d="M211.853 141.364C210.396 142.233 208.876 142.988 207.307 143.622C205.79 144.376 204.221 145.016 202.612 145.538C204.07 144.669 205.589 143.914 207.158 143.28C208.676 142.527 210.245 141.887 211.853 141.364Z" fill="#263238"/>
<path d="M165.762 116.022C165.609 115.436 165.636 114.817 165.838 114.248C166.04 113.679 166.409 113.187 166.893 112.839C168.629 111.382 182.316 107.885 182.316 107.885C182.316 107.885 186.072 107.317 187.039 109.517L165.762 116.022Z" fill="#58A4B0"/>
<path opacity="0.2" d="M192.822 166.815L225.119 151.445L223.391 148.415L192.822 166.815Z" fill="black"/>
<g opacity="0.2">
<path opacity="0.2" d="M186.712 110.165C186.521 110.376 186.301 110.555 186.057 110.697C185.413 111.11 184.729 111.454 184.016 111.724C183.119 112.074 182.024 112.394 180.815 112.758C179.605 113.123 178.275 113.487 176.866 113.888C174.462 114.545 172.016 115.031 169.546 115.344C168.6 115.461 167.832 115.512 167.298 115.534C167.021 115.564 166.742 115.564 166.466 115.534C166.732 115.455 167.007 115.411 167.284 115.403C167.81 115.337 168.579 115.242 169.518 115.097C171.961 114.694 174.383 114.164 176.774 113.509L180.722 112.409C181.939 112.066 183.034 111.775 183.93 111.455C184.894 111.111 185.825 110.68 186.712 110.165Z" fill="black"/>
</g>
<g opacity="0.2">
<path opacity="0.2" d="M170.635 114.871C170.374 114.69 170.161 114.446 170.016 114.16C169.87 113.873 169.797 113.554 169.803 113.232C169.743 112.916 169.762 112.589 169.858 112.283C169.953 111.976 170.123 111.699 170.35 111.476C170.238 112.045 170.178 112.623 170.172 113.203C170.28 113.771 170.434 114.329 170.635 114.871Z" fill="black"/>
</g>
<g opacity="0.2">
<path opacity="0.2" d="M175.593 114.281C174.998 113.871 174.554 113.268 174.334 112.57C174.113 111.871 174.128 111.116 174.376 110.427C174.439 111.109 174.543 111.785 174.689 112.453C174.945 113.084 175.247 113.695 175.593 114.281Z" fill="black"/>
</g>
<g opacity="0.2">
<path opacity="0.2" d="M180.808 112.256C180.701 112.256 180.495 111.418 179.954 110.5C179.414 109.582 178.795 108.971 178.866 108.883C178.937 108.796 179.713 109.306 180.289 110.304C180.68 110.872 180.863 111.563 180.808 112.256Z" fill="black"/>
</g>
<path d="M227.09 171.514C227.09 171.514 293.086 184.764 294.473 192.23C295.86 199.696 293.05 265.678 293.05 265.678L273.985 266.071L271.915 208.591L192.822 187.415L227.09 171.514Z" fill="#58A4B0"/>
<path opacity="0.2" d="M227.09 171.514C227.09 171.514 293.086 184.764 294.473 192.23C295.86 199.696 293.05 265.678 293.05 265.678L273.985 266.071L271.915 208.591L192.822 187.415L227.09 171.514Z" fill="black"/>
<path d="M293.641 250.249L293.719 263.747C293.719 263.747 305.045 261.402 304.12 266.071C303.736 268.008 274.611 276.822 274.163 276.407L273.658 257.337L293.641 250.249Z" fill="#58A4B0"/>
<path opacity="0.4" d="M293.641 250.249L293.719 263.747C293.719 263.747 305.045 261.402 304.12 266.071C303.736 268.008 274.611 276.822 274.163 276.407L273.658 257.337L293.641 250.249Z" fill="black"/>
<path d="M303.443 266.675C303.28 266.242 303.028 265.849 302.704 265.524C302.38 265.199 301.992 264.948 301.565 264.789C300.957 264.563 300.312 264.457 299.666 264.476C295.875 264.814 292.138 265.613 288.532 266.858C284.917 268.097 281.44 269.726 278.16 271.716C276.908 272.481 275.912 273.173 275.229 273.603C274.892 273.875 274.532 274.119 274.155 274.331C274.465 274.035 274.795 273.762 275.144 273.515C275.806 273.013 276.78 272.313 278.025 271.512C281.291 269.454 284.778 267.792 288.419 266.559C292.054 265.294 295.835 264.522 299.666 264.264C300.344 264.259 301.016 264.392 301.643 264.658C302.117 264.86 302.54 265.169 302.881 265.561C303.097 265.805 303.264 266.089 303.372 266.399C303.41 266.486 303.434 266.58 303.443 266.675Z" fill="#263238"/>
<path d="M293.613 253.906C293.393 254.075 293.154 254.217 292.901 254.329C292.425 254.583 291.721 254.926 290.846 255.341C289.096 256.179 286.648 257.264 283.902 258.357C281.156 259.449 278.631 260.338 276.788 260.928C275.871 261.227 275.117 261.46 274.597 261.606C274.332 261.699 274.058 261.762 273.779 261.795C274.025 261.654 274.285 261.542 274.555 261.46L276.689 260.673C278.51 260.018 281.007 259.092 283.753 258C286.499 256.907 288.946 255.865 290.725 255.086L292.859 254.183C293.098 254.06 293.352 253.967 293.613 253.906Z" fill="#263238"/>
<path d="M281.675 261.606C281.675 261.606 281.675 261.482 281.853 261.358C281.969 261.277 282.102 261.225 282.241 261.204C282.381 261.184 282.523 261.197 282.656 261.241C282.852 261.299 283.027 261.413 283.162 261.569C283.308 261.756 283.393 261.985 283.403 262.225C283.408 262.491 283.342 262.753 283.211 262.983C283.081 263.213 282.891 263.402 282.663 263.53C282.435 263.657 282.178 263.718 281.918 263.707C281.659 263.695 281.407 263.611 281.191 263.463C281.002 263.316 280.867 263.108 280.807 262.873C280.766 262.671 280.781 262.462 280.85 262.268C280.89 262.13 280.961 262.003 281.055 261.896C281.15 261.789 281.267 261.704 281.397 261.649C281.582 261.591 281.696 261.649 281.689 261.649C281.682 261.649 281.589 261.693 281.461 261.788C281.275 261.917 281.145 262.115 281.098 262.341C281.056 262.495 281.061 262.658 281.113 262.808C281.166 262.958 281.262 263.088 281.39 263.179C281.554 263.288 281.744 263.35 281.94 263.358C282.135 263.365 282.329 263.318 282.501 263.222C282.673 263.126 282.815 262.983 282.914 262.81C283.013 262.637 283.064 262.44 283.062 262.239C283.064 262.081 283.018 261.925 282.93 261.795C282.842 261.664 282.717 261.565 282.571 261.511C282.363 261.427 282.132 261.427 281.924 261.511C281.774 261.518 281.703 261.62 281.675 261.606Z" fill="#263238"/>
<path d="M277.634 275.795C277.623 274.341 277.864 272.895 278.346 271.527C278.356 272.981 278.116 274.427 277.634 275.795Z" fill="#263238"/>
<path d="M280.531 274.943C280.522 274.018 280.636 273.097 280.872 272.204C280.987 271.284 281.226 270.384 281.584 269.531C281.589 270.458 281.474 271.381 281.242 272.277C281.123 273.194 280.884 274.091 280.531 274.943Z" fill="#263238"/>
<path d="M283.703 274.054C283.809 272.074 284.16 270.116 284.749 268.227C284.643 270.207 284.292 272.165 283.703 274.054Z" fill="#263238"/>
<path d="M287.316 272.94C287.423 270.831 287.774 268.743 288.362 266.719C288.256 268.828 287.905 270.916 287.316 272.94Z" fill="#263238"/>
<path d="M290.738 271.855C290.844 269.746 291.195 267.658 291.784 265.634C291.678 267.743 291.327 269.831 290.738 271.855Z" fill="#263238"/>
<path d="M294.466 270.456C294.461 269.498 294.576 268.543 294.807 267.615C294.927 266.667 295.166 265.739 295.519 264.854C295.528 265.81 295.413 266.763 295.177 267.688C295.063 268.639 294.823 269.57 294.466 270.456Z" fill="#263238"/>
<path d="M298.201 269.014C298.305 267.389 298.658 265.791 299.247 264.279C299.251 265.096 299.134 265.909 298.898 266.69C298.785 267.497 298.55 268.281 298.201 269.014Z" fill="#263238"/>
<path d="M242.165 264.745C242.314 265.022 239.988 266.603 236.972 268.285C233.955 269.968 231.394 271.097 231.28 270.82C231.167 270.543 233.464 268.963 236.481 267.28C239.497 265.597 242.022 264.468 242.165 264.745Z" fill="#263238"/>
<path d="M275.266 105.722V105.678C278.605 104.271 281.868 102.68 285.04 100.914C289.308 98.2773 289.109 97.8839 288.718 97.4177C287.686 96.1867 280.999 101.788 281.761 99.7123C282.522 97.6363 290.71 93.8849 289.586 92.6174C288.106 91.0003 281.213 96.988 280.594 97.4323C279.975 97.8766 279.306 96.9952 279.882 96.6092C280.722 96.0556 289.358 90.0023 287.921 88.3998C287.124 87.5111 285.702 89.1282 285.702 89.1282C285.702 89.1282 278.026 95.3927 277.371 94.6133C276.717 93.8339 281.092 89.9878 282.664 88.7859C284.236 87.5839 284.293 86.382 283.219 86.1125C282.507 85.9231 277.599 89.4414 276.105 90.6506C274.611 91.8598 270.457 95.2543 271.161 91.889C271.865 88.5236 271.161 85.6682 270.449 85.0272C269.738 84.3862 268.607 85.1728 268.835 86.2145C268.971 87.3677 268.95 88.5348 268.771 89.6818C268.664 90.6119 268.402 91.5162 267.995 92.3552C267.526 93.3313 267.085 94.1325 266.693 94.81C266.047 95.8824 265.837 97.172 266.11 98.4011C266.658 100.2 273.025 106.567 273.025 106.567L275.266 105.722Z" fill="#58A4B0"/>
<g opacity="0.7">
<path opacity="0.7" d="M275.266 105.722V105.678C278.605 104.271 281.868 102.68 285.04 100.914C289.308 98.2773 289.109 97.8839 288.718 97.4177C287.686 96.1867 280.999 101.788 281.761 99.7123C282.522 97.6363 290.71 93.8849 289.586 92.6174C288.106 91.0003 281.213 96.988 280.594 97.4323C279.975 97.8766 279.306 96.9952 279.882 96.6092C280.722 96.0556 289.358 90.0023 287.921 88.3998C287.124 87.5111 285.702 89.1282 285.702 89.1282C285.702 89.1282 278.026 95.3927 277.371 94.6133C276.717 93.8339 281.092 89.9878 282.664 88.7859C284.236 87.5839 284.293 86.382 283.219 86.1125C282.507 85.9231 277.599 89.4414 276.105 90.6506C274.611 91.8598 270.457 95.2543 271.161 91.889C271.865 88.5236 271.161 85.6682 270.449 85.0272C269.738 84.3862 268.607 85.1728 268.835 86.2145C268.971 87.3677 268.95 88.5348 268.771 89.6818C268.664 90.6119 268.402 91.5162 267.995 92.3552C267.526 93.3313 267.085 94.1325 266.693 94.81C266.047 95.8824 265.837 97.172 266.11 98.4011C266.658 100.2 273.025 106.567 273.025 106.567L275.266 105.722Z" fill="white"/>
</g>
<path d="M192.075 110.77C193.555 111.899 234.915 113.349 234.915 113.349L261.898 97.782L272.704 108.351C272.704 108.351 241.204 130.051 237.697 130.809C234.189 131.567 208.615 130.809 208.615 130.809L192.075 110.77Z" fill="#58A4B0"/>
<path d="M262.375 98.4084L271.687 108.497C271.977 108.814 272.368 109.015 272.789 109.063C273.21 109.111 273.634 109.003 273.985 108.759L274.049 108.716C274.264 108.567 274.445 108.372 274.578 108.144C274.712 107.916 274.796 107.661 274.823 107.397C274.851 107.133 274.822 106.866 274.739 106.614C274.656 106.363 274.52 106.133 274.341 105.94L264.958 95.8953C264.684 95.5991 264.322 95.4057 263.928 95.3462C263.535 95.2867 263.133 95.3647 262.788 95.5675C262.552 95.7038 262.35 95.8933 262.197 96.1216C262.044 96.3499 261.944 96.6109 261.904 96.8848C261.864 97.1587 261.886 97.4383 261.968 97.7023C262.049 97.9663 262.189 98.2078 262.375 98.4084Z" fill="#58A4B0"/>
<path opacity="0.5" d="M262.375 98.4084L271.687 108.497C271.977 108.814 272.368 109.015 272.789 109.063C273.21 109.111 273.634 109.003 273.985 108.759L274.049 108.716C274.264 108.567 274.445 108.372 274.578 108.144C274.712 107.916 274.796 107.661 274.823 107.397C274.851 107.133 274.822 106.866 274.739 106.614C274.656 106.363 274.52 106.133 274.341 105.94L264.958 95.8953C264.684 95.5991 264.322 95.4057 263.928 95.3462C263.535 95.2867 263.133 95.3647 262.788 95.5675C262.552 95.7038 262.35 95.8933 262.197 96.1216C262.044 96.3499 261.944 96.6109 261.904 96.8848C261.864 97.1587 261.886 97.4383 261.968 97.7023C262.049 97.9663 262.189 98.2078 262.375 98.4084Z" fill="white"/>
<path d="M237.783 130.787C237.55 130.691 237.332 130.561 237.136 130.401C236.606 129.983 236.115 129.515 235.671 129.002C234.177 127.307 233.175 125.218 232.775 122.972C232.376 120.726 232.595 118.41 233.408 116.284C233.648 115.645 233.946 115.03 234.298 114.448C234.413 114.225 234.562 114.021 234.739 113.844C234.803 113.844 234.198 114.769 233.657 116.379C232.929 118.47 232.75 120.721 233.138 122.906C233.526 125.091 234.468 127.133 235.87 128.828C236.965 130.117 237.847 130.729 237.783 130.787Z" fill="#263238"/>
<path d="M269.148 105.19C269.051 105.293 268.944 105.386 268.828 105.467L267.875 106.195C267.043 106.829 265.826 107.732 264.318 108.832C261.295 111.017 257.062 114.004 252.317 117.158C247.572 120.312 243.197 123.073 239.981 125.011C238.388 125.987 237.086 126.759 236.183 127.276L235.137 127.866C235.019 127.944 234.892 128.007 234.76 128.055C234.862 127.955 234.977 127.869 235.101 127.8L236.111 127.152L239.846 124.785C243.005 122.789 247.351 120.006 252.096 116.852C256.841 113.698 261.117 110.733 264.169 108.621L267.804 106.079L268.793 105.401C268.901 105.314 269.021 105.243 269.148 105.19Z" fill="#263238"/>
<path d="M234.788 127.582C234.788 127.684 229.324 127.582 222.594 127.276C215.865 126.97 210.408 126.701 210.408 126.599C210.408 126.497 215.872 126.599 222.609 126.897C229.345 127.196 234.795 127.487 234.788 127.582Z" fill="#263238"/>
<g opacity="0.2">
<path opacity="0.2" d="M216.035 130.991C214.384 126.286 212.046 121.865 209.099 117.879C206.353 114.091 199.474 111.112 194.871 111.323C201.444 114.361 210.123 123.474 213.275 131.049L216.035 130.991Z" fill="black"/>
</g>
<path d="M157.381 121.004C157.118 119.679 131.487 140.949 120.716 149.952C119.252 151.176 118.072 152.718 117.263 154.467C116.453 156.216 116.034 158.127 116.035 160.063C116.035 161.777 116.365 163.474 117.006 165.058C117.646 166.642 118.585 168.081 119.769 169.293C120.953 170.505 122.358 171.466 123.905 172.122C125.451 172.778 127.109 173.116 128.783 173.116H160.006V156.901H139.675L165.776 139.295L157.381 121.004Z" fill="#58A4B0"/>
<path d="M164.005 171.317V171.266C167.573 171.826 171.169 172.186 174.775 172.344C179.755 172.344 179.791 171.892 179.691 171.295C179.428 169.692 170.891 170.938 172.577 169.583C174.263 168.228 183.191 169.292 182.85 167.631C182.401 165.446 173.488 166.939 172.719 167.012C171.951 167.085 171.837 165.948 172.527 165.926C173.523 165.926 183.967 165.271 183.547 163.137C183.312 161.956 181.277 162.583 181.277 162.583C181.277 162.583 171.546 163.901 171.382 162.889C171.218 161.876 176.902 160.886 178.845 160.704C180.787 160.521 181.455 159.509 180.666 158.708C180.132 158.161 174.171 158.591 172.257 158.824C170.343 159.057 165.1 159.793 167.398 157.28C169.696 154.767 170.535 151.948 170.244 151.023C170.158 150.816 170.01 150.642 169.822 150.526C169.634 150.41 169.415 150.358 169.196 150.376C168.977 150.395 168.77 150.484 168.603 150.63C168.436 150.776 168.318 150.972 168.266 151.19C167.797 152.242 167.189 153.222 166.459 154.104C165.901 154.844 165.222 155.48 164.453 155.983C163.557 156.573 162.774 157.032 162.098 157.404C161.007 157.984 160.18 158.977 159.794 160.172C159.352 162.007 161.608 170.814 161.608 170.814L164.005 171.317Z" fill="#58A4B0"/>
<g opacity="0.7">
<path opacity="0.7" d="M164.005 171.317V171.266C167.573 171.826 171.169 172.186 174.775 172.344C179.755 172.344 179.791 171.892 179.691 171.295C179.428 169.692 170.891 170.938 172.577 169.583C174.263 168.228 183.191 169.292 182.85 167.631C182.401 165.446 173.488 166.939 172.719 167.012C171.951 167.085 171.837 165.948 172.527 165.926C173.523 165.926 183.967 165.271 183.547 163.137C183.312 161.956 181.277 162.583 181.277 162.583C181.277 162.583 171.546 163.901 171.382 162.889C171.218 161.876 176.902 160.886 178.845 160.704C180.787 160.521 181.455 159.509 180.666 158.708C180.132 158.161 174.171 158.591 172.257 158.824C170.343 159.057 165.1 159.793 167.398 157.28C169.696 154.767 170.535 151.948 170.244 151.023C170.158 150.816 170.01 150.642 169.822 150.526C169.634 150.41 169.415 150.358 169.196 150.376C168.977 150.395 168.77 150.484 168.603 150.63C168.436 150.776 168.318 150.972 168.266 151.19C167.797 152.242 167.189 153.222 166.459 154.104C165.901 154.844 165.222 155.48 164.453 155.983C163.557 156.573 162.774 157.032 162.098 157.404C161.007 157.984 160.18 158.977 159.794 160.172C159.352 162.007 161.608 170.814 161.608 170.814L164.005 171.317Z" fill="white"/>
</g>
<path d="M117.053 154.57C117.265 154.303 117.503 154.059 117.764 153.842C118.458 153.209 119.214 152.65 120.019 152.174C122.702 150.569 125.813 149.875 128.904 150.192C131.988 150.562 134.882 151.907 137.185 154.039C137.877 154.675 138.507 155.38 139.063 156.144C139.281 156.413 139.465 156.709 139.611 157.025C138.812 156.034 137.944 155.105 137.014 154.243C134.713 152.227 131.877 150.959 128.869 150.6C125.847 150.294 122.806 150.934 120.147 152.436C119.067 153.07 118.032 153.783 117.053 154.57Z" fill="#263238"/>
<path d="M162.112 134.626C162.169 134.706 156.421 138.996 149.243 144.285C142.065 149.573 136.225 153.718 136.161 153.631C136.097 153.543 141.852 149.26 149.03 143.972C156.208 138.683 162.048 134.538 162.112 134.626Z" fill="#263238"/>
<path d="M157.495 165.504C157.365 165.545 157.232 165.569 157.096 165.577L155.937 165.701C154.934 165.81 153.475 165.941 151.669 166.087C148.069 166.371 143.075 166.669 137.562 166.815C132.048 166.961 127.047 166.975 123.433 166.91C121.627 166.91 120.161 166.83 119.165 166.786L118.006 166.728C117.869 166.727 117.733 166.71 117.6 166.677C117.735 166.66 117.871 166.66 118.006 166.677H123.448C127.062 166.677 132.056 166.677 137.569 166.473C143.082 166.269 148.062 166.05 151.669 165.832L155.937 165.57L157.104 165.511C157.233 165.493 157.365 165.49 157.495 165.504Z" fill="#263238"/>
<g opacity="0.2">
<path opacity="0.2" d="M142.442 155.102C142.343 152.516 140.308 150.273 137.953 149.428C135.599 148.583 132.383 149.347 130.036 150.302C133.778 151.416 137.612 153.572 139.703 156.945L142.442 155.102Z" fill="black"/>
</g>
<path d="M157.644 157.448L157.993 171.324C158.004 171.757 158.164 172.171 158.445 172.494C158.727 172.817 159.111 173.027 159.529 173.087H159.607C159.865 173.123 160.128 173.101 160.377 173.023C160.626 172.944 160.855 172.812 161.048 172.634C161.242 172.455 161.395 172.236 161.498 171.991C161.6 171.746 161.65 171.481 161.642 171.215L161.215 157.324C161.201 156.914 161.053 156.522 160.795 156.209C160.537 155.896 160.184 155.68 159.792 155.597C159.528 155.541 159.254 155.547 158.992 155.614C158.73 155.682 158.486 155.81 158.279 155.988C158.072 156.166 157.908 156.39 157.798 156.643C157.688 156.896 157.635 157.171 157.644 157.448Z" fill="#58A4B0"/>
<path opacity="0.5" d="M157.644 157.448L157.993 171.324C158.004 171.757 158.164 172.171 158.445 172.494C158.727 172.817 159.111 173.027 159.529 173.087H159.607C159.865 173.123 160.128 173.101 160.377 173.023C160.626 172.944 160.855 172.812 161.048 172.634C161.242 172.455 161.395 172.236 161.498 171.991C161.6 171.746 161.65 171.481 161.642 171.215L161.215 157.324C161.201 156.914 161.053 156.522 160.795 156.209C160.537 155.896 160.184 155.68 159.792 155.597C159.528 155.541 159.254 155.547 158.992 155.614C158.73 155.682 158.486 155.81 158.279 155.988C158.072 156.166 157.908 156.39 157.798 156.643C157.688 156.896 157.635 157.171 157.644 157.448Z" fill="white"/>
<path d="M163.677 141.182C164.972 140.242 166.117 139.102 167.07 137.802C168.062 136.37 168.786 134.762 169.204 133.06C169.453 132.058 169.603 131.033 169.653 130C169.695 128.892 169.614 127.783 169.411 126.693C168.998 124.464 167.988 122.41 166.338 121.347C164.866 120.449 163.158 120.042 161.45 120.181C160.293 120.262 159.144 120.438 158.014 120.706C157.598 120.811 157.175 120.886 156.748 120.931C156.748 120.931 156.848 120.88 157.054 120.808C157.26 120.735 157.573 120.647 157.972 120.538C159.101 120.205 160.258 119.986 161.429 119.883C163.2 119.697 164.983 120.098 166.515 121.026C167.402 121.619 168.135 122.424 168.65 123.372C169.197 124.371 169.579 125.457 169.781 126.584C169.99 127.705 170.071 128.846 170.023 129.986C169.967 131.046 169.807 132.098 169.546 133.125C169.09 134.861 168.318 136.492 167.27 137.933C166.564 138.902 165.719 139.756 164.765 140.468C164.508 140.662 164.237 140.837 163.954 140.992C163.871 141.068 163.777 141.132 163.677 141.182Z" fill="#263238"/>
<path d="M281.804 166.502L257.055 194.546L243.225 184.56L265.99 156.741L205.906 189.251C203.113 190.727 199.88 191.075 196.849 190.223C193.817 189.371 191.21 187.384 189.544 184.654C188.609 183.123 188 181.407 187.758 179.618C187.515 177.829 187.644 176.008 188.136 174.274C188.629 172.54 189.473 170.932 190.614 169.555C191.755 168.178 193.167 167.063 194.758 166.283L259.701 134.466C264.275 132.221 269.467 131.668 274.395 132.898C279.323 134.129 283.683 137.069 286.734 141.218C292.866 149.566 289.629 158.351 281.804 166.502Z" fill="#58A4B0"/>
<path d="M272.05 149.034C272.05 149.034 272.05 148.998 271.978 148.91L271.793 148.524C271.576 148.023 271.304 147.549 270.982 147.111C270.489 146.389 269.819 145.811 269.04 145.436C267.98 144.965 266.788 144.908 265.69 145.275L231.97 163.348L202.867 178.79L194.031 183.438L191.606 184.676L190.972 184.989L190.752 185.084C190.752 185.084 190.816 185.033 190.951 184.953L191.57 184.603L193.946 183.299L202.732 178.55L231.785 162.998L265.576 145.079C266.725 144.703 267.971 144.778 269.069 145.29C269.864 145.686 270.542 146.292 271.032 147.046C271.345 147.5 271.607 147.989 271.815 148.502L271.971 148.896C272.042 148.99 272.057 149.034 272.05 149.034Z" fill="#263238"/>
<path d="M275.038 145.268C275.116 145.334 272.989 148.182 270.286 151.562C267.583 154.942 265.306 157.695 265.249 157.63C265.192 157.564 267.298 154.716 270.001 151.329C271.58 149.224 273.261 147.201 275.038 145.268Z" fill="#263238"/>
<path d="M269.567 180.386L256.392 195.901C256.392 195.901 263.912 204.992 262.66 206.063C261.408 207.134 240.55 188.085 240.55 188.085L254.208 170.21L269.567 180.386Z" fill="#58A4B0"/>
<path opacity="0.4" d="M269.567 180.386L256.392 195.901C256.392 195.901 263.912 204.992 262.66 206.063C261.408 207.134 240.55 188.085 240.55 188.085L254.208 170.21L269.567 180.386Z" fill="black"/>
<path d="M266.245 184.567C266.195 184.662 262.496 182.666 257.979 180.109C253.461 177.552 249.84 175.411 249.89 175.323C249.94 175.236 253.639 177.224 258.156 179.781C262.674 182.338 266.302 184.48 266.245 184.567Z" fill="#263238"/>
<path d="M248.873 184.931C248.873 184.931 248.802 185.062 248.702 185.295C248.573 185.618 248.541 185.973 248.61 186.315C248.65 186.562 248.744 186.797 248.884 187.003C249.025 187.208 249.208 187.379 249.421 187.502C249.691 187.609 249.984 187.636 250.268 187.581C250.552 187.525 250.815 187.389 251.027 187.188C251.239 186.986 251.391 186.728 251.467 186.443C251.543 186.157 251.539 185.856 251.456 185.572C251.351 185.347 251.2 185.147 251.011 184.989C250.823 184.83 250.603 184.716 250.367 184.654C250.04 184.557 249.692 184.557 249.364 184.654C249.129 184.734 249.015 184.829 248.994 184.8C248.973 184.771 249.065 184.654 249.307 184.523C249.651 184.343 250.047 184.291 250.424 184.378C250.712 184.432 250.983 184.555 251.216 184.736C251.45 184.917 251.639 185.151 251.769 185.419C251.888 185.77 251.905 186.149 251.817 186.51C251.729 186.871 251.54 187.197 251.273 187.449C251.006 187.701 250.674 187.868 250.315 187.93C249.957 187.991 249.59 187.944 249.257 187.794C249.006 187.64 248.794 187.428 248.637 187.175C248.48 186.922 248.383 186.635 248.354 186.337C248.297 185.944 248.375 185.542 248.574 185.201C248.724 184.989 248.866 184.917 248.873 184.931Z" fill="#263238"/>
<path opacity="0.2" d="M248.46 166.283L265.54 157.047L274.383 146.084L248.46 166.283Z" fill="black"/>
<path d="M275.458 70.1152C285.368 69.8784 293.213 61.4605 292.981 51.3133C292.748 41.166 284.526 33.132 274.616 33.3688C264.706 33.6056 256.861 42.0235 257.094 52.1708C257.326 62.318 265.548 70.352 275.458 70.1152Z" fill="#455A64"/>
<path d="M280.888 44.7086C280.902 44.1165 281.087 43.5419 281.421 43.0578C281.754 42.5736 282.22 42.2015 282.76 41.9887C283.3 41.7758 283.889 41.7317 284.453 41.862C285.018 41.9922 285.532 42.291 285.93 42.7204C286.329 43.1498 286.594 43.6906 286.692 44.2744C286.79 44.8582 286.717 45.4586 286.482 45.9998C286.247 46.541 285.86 46.9986 285.371 47.3146C284.881 47.6307 284.311 47.791 283.733 47.7753C282.959 47.7543 282.224 47.4196 281.691 46.8447C281.157 46.2697 280.868 45.5015 280.888 44.7086Z" fill="#263238"/>
<path d="M286.734 51.7307C286.741 51.3847 286.848 51.0487 287.042 50.7652C287.236 50.4817 287.507 50.2635 287.822 50.1381C288.137 50.0128 288.482 49.986 288.812 50.0611C289.141 50.1362 289.442 50.3099 289.676 50.5602C289.909 50.8104 290.065 51.1259 290.123 51.4668C290.181 51.8077 290.139 52.1586 290.002 52.475C289.865 52.7915 289.64 53.0592 289.355 53.2444C289.069 53.4296 288.736 53.5239 288.399 53.5153C288.175 53.5106 287.954 53.4606 287.749 53.3683C287.544 53.2759 287.359 53.143 287.204 52.9772C287.049 52.8114 286.928 52.6159 286.848 52.402C286.767 52.1881 286.728 51.9599 286.734 51.7307Z" fill="#263238"/>
<path d="M284.45 57.0555C284.605 57.0724 284.749 57.1476 284.854 57.2667C284.958 57.3857 285.016 57.5401 285.016 57.7001C285.016 57.8602 284.958 58.0146 284.854 58.1336C284.749 58.2526 284.605 58.3279 284.45 58.3448C284.294 58.3279 284.151 58.2526 284.046 58.1336C283.942 58.0146 283.884 57.8602 283.884 57.7001C283.884 57.5401 283.942 57.3857 284.046 57.2667C284.151 57.1476 284.294 57.0724 284.45 57.0555Z" fill="#263238"/>
<path d="M351.797 90.5414L352.189 91.2698C352.63 92.0931 353.291 92.7704 354.095 93.222L354.806 93.6226L354.095 94.0306C353.291 94.4822 352.63 95.1594 352.189 95.9827L351.797 96.7112L351.406 95.9827C350.965 95.1594 350.304 94.4822 349.499 94.0306L348.788 93.6226L349.499 93.222C350.304 92.7704 350.965 92.0931 351.406 91.2698L351.797 90.5414Z" fill="#455A64"/>
<path d="M41.3749 199.507L41.7733 200.235C42.2124 201.06 42.8743 201.738 43.6798 202.188L44.3912 202.588L43.6798 202.996C42.8743 203.446 42.2124 204.124 41.7733 204.948L41.3749 205.677L40.9836 204.948C40.5426 204.125 39.8812 203.448 39.0771 202.996L38.3657 202.588L39.0771 202.188C39.8812 201.736 40.5426 201.059 40.9836 200.235L41.3749 199.507Z" fill="#455A64"/>
<path d="M126.486 197.788L126.685 198.152C126.906 198.564 127.236 198.902 127.638 199.128L128.001 199.332L127.638 199.529C127.236 199.757 126.905 200.099 126.685 200.512L126.486 200.876L126.294 200.512C126.073 200.099 125.743 199.757 125.34 199.529L124.978 199.332L125.34 199.128C125.742 198.902 126.073 198.564 126.294 198.152L126.486 197.788Z" fill="#455A64"/>
<path d="M322.331 196.418L322.531 196.79C322.751 197.202 323.082 197.54 323.484 197.766L323.84 197.963L323.484 198.167C323.08 198.39 322.749 198.729 322.531 199.143L322.331 199.507L322.139 199.143C321.919 198.731 321.588 198.393 321.186 198.167L320.823 197.963L321.186 197.766C321.587 197.538 321.917 197.2 322.139 196.79L322.331 196.418Z" fill="#455A64"/>
<path d="M231.188 86.7754L231.38 87.1396C231.6 87.5511 231.931 87.8897 232.333 88.1157L232.696 88.3197L232.333 88.5163C231.933 88.7442 231.602 89.0823 231.38 89.4924L231.188 89.8639L230.988 89.4924C230.762 89.0803 230.427 88.742 230.021 88.5163L229.658 88.3197L230.021 88.1521C230.423 87.9262 230.754 87.5876 230.974 87.176L231.188 86.7754Z" fill="#455A64"/>
<path d="M125.341 72.8041L125.533 73.1684C125.753 73.5821 126.084 73.9232 126.486 74.1517L126.849 74.3484L126.486 74.5524C126.084 74.7783 125.753 75.1169 125.533 75.5285L125.341 75.8927L125.141 75.5285C124.923 75.1152 124.592 74.776 124.188 74.5524L123.833 74.3484L124.188 74.1517C124.592 73.9251 124.923 73.5836 125.141 73.1684L125.341 72.8041Z" fill="#455A64"/>
<path d="M197.682 23.9775L198.393 25.245C199.154 26.6685 200.297 27.839 201.687 28.6176L202.925 29.3461L201.687 30.0745C200.297 30.8532 199.154 32.0236 198.393 33.4471L197.682 34.7146L196.97 33.4471C196.238 32.0057 195.117 30.8099 193.741 30.0016L192.503 29.2732L193.741 28.5448C195.131 27.7661 196.274 26.5957 197.034 25.1722L197.682 23.9775Z" fill="#455A64"/>
<path d="M124.217 250.898L124.892 252.165C125.651 253.59 126.794 254.761 128.186 255.538L129.424 256.266L128.186 256.958C126.796 257.737 125.653 258.907 124.892 260.331L124.217 261.598L123.505 260.331C122.745 258.907 121.602 257.737 120.211 256.958L118.974 256.266L120.211 255.538C121.603 254.761 122.747 253.59 123.505 252.165L124.217 250.898Z" fill="#455A64"/>
</svg>
