<svg width="68" height="50" viewBox="0 0 68 50" fill="none" xmlns="http://www.w3.org/2000/svg">
<g clip-path="url(#clip0_850:231)">
<path d="M12.3248 49.8902V46.5719C12.3248 45.3026 11.5082 44.4714 10.1063 44.4714C9.40529 44.4714 8.64309 44.6905 8.11907 45.4121C7.71074 44.8065 7.12547 44.4714 6.24757 44.4714C5.6623 44.4714 5.07703 44.639 4.61426 45.2446V44.581H3.38928V49.8902H4.61426V46.9585C4.61426 46.0178 5.13828 45.5732 5.95493 45.5732C6.77159 45.5732 7.17991 46.0694 7.17991 46.9585V49.8902H8.40489V46.9585C8.40489 46.0178 8.99016 45.5732 9.74557 45.5732C10.5622 45.5732 10.9705 46.0694 10.9705 46.9585V49.8902H12.3248ZM30.4954 44.581H28.5082V42.9766H27.2832V44.581H26.1739V45.6312H27.2832V48.0668C27.2832 49.2845 27.8072 49.9997 29.2091 49.9997C29.7332 49.9997 30.3184 49.8322 30.7268 49.6131L30.3729 48.6144C30.019 48.8335 29.6107 48.8915 29.318 48.8915C28.7328 48.8915 28.5014 48.5565 28.5014 48.0088V45.6312H30.4886V44.581H30.4954ZM40.8941 44.465C40.1931 44.465 39.7236 44.8 39.4309 45.2382V44.5745H38.2059V49.8838H39.4309V46.8941C39.4309 46.0114 39.8392 45.5088 40.6015 45.5088C40.8328 45.5088 41.1255 45.5668 41.3637 45.6183L41.7175 44.5101C41.4725 44.465 41.1255 44.465 40.8941 44.465ZM25.1803 45.0191C24.595 44.6325 23.7784 44.465 22.9005 44.465C21.4986 44.465 20.5662 45.1286 20.5662 46.1789C20.5662 47.0616 21.2672 47.5642 22.4922 47.7253L23.0774 47.7833C23.7171 47.8928 24.071 48.0603 24.071 48.3374C24.071 48.724 23.6015 49.001 22.7848 49.001C21.9681 49.001 21.3216 48.724 20.9133 48.4469L20.328 49.3296C20.9677 49.7742 21.8456 49.9933 22.7236 49.9933C24.3569 49.9933 25.296 49.2717 25.296 48.2794C25.296 47.3387 24.5338 46.8426 23.3701 46.675L22.7848 46.617C22.2608 46.559 21.8525 46.4495 21.8525 46.1209C21.8525 45.7343 22.2608 45.5152 22.9073 45.5152C23.6083 45.5152 24.3092 45.7923 24.6631 45.9598L25.1803 45.0191ZM57.7716 44.465C57.0706 44.465 56.6011 44.8 56.3084 45.2382V44.5745H55.0834V49.8838H56.3084V46.8941C56.3084 46.0114 56.7167 45.5088 57.479 45.5088C57.7103 45.5088 58.003 45.5668 58.2412 45.6183L58.5951 44.523C58.3569 44.465 58.0098 44.465 57.7716 44.465ZM42.1191 47.2356C42.1191 48.84 43.2896 49.9997 45.0999 49.9997C45.9165 49.9997 46.5018 49.8322 47.087 49.3941L46.5018 48.4534C46.0322 48.7884 45.5694 48.9495 45.0386 48.9495C44.045 48.9495 43.344 48.2858 43.344 47.2356C43.344 46.2369 44.045 45.5732 45.0386 45.5217C45.5626 45.5217 46.0322 45.6892 46.5018 46.0178L47.087 45.0771C46.5018 44.6325 45.9165 44.4714 45.0999 44.4714C43.2896 44.465 42.1191 45.6312 42.1191 47.2356ZM53.4501 47.2356V44.581H52.2252V45.2446C51.8168 44.7485 51.2316 44.4714 50.4693 44.4714C48.8905 44.4714 47.6655 45.6312 47.6655 47.2356C47.6655 48.84 48.8905 49.9997 50.4693 49.9997C51.286 49.9997 51.8713 49.7227 52.2252 49.2266V49.8902H53.4501V47.2356ZM48.9517 47.2356C48.9517 46.2949 49.5914 45.5217 50.6463 45.5217C51.6399 45.5217 52.3408 46.2433 52.3408 47.2356C52.3408 48.1763 51.6399 48.9495 50.6463 48.9495C49.5983 48.8915 48.9517 48.1699 48.9517 47.2356ZM34.2928 44.465C32.6595 44.465 31.489 45.5732 31.489 47.2291C31.489 48.8915 32.6595 49.9933 34.3541 49.9933C35.1707 49.9933 35.9874 49.7742 36.6339 49.2717L36.0486 48.4405C35.579 48.7755 34.9938 48.9946 34.4153 48.9946C33.6531 48.9946 32.8977 48.6595 32.7207 47.7253H36.8653C36.8653 47.5578 36.8653 47.4482 36.8653 47.2807C36.9197 45.5732 35.8649 44.465 34.2928 44.465ZM34.2928 45.4637C35.055 45.4637 35.579 45.9083 35.6947 46.733H32.7752C32.8909 46.0178 33.4149 45.4637 34.2928 45.4637ZM64.7268 47.2356V42.4805H63.5018V45.2446C63.0934 44.7485 62.5082 44.4714 61.746 44.4714C60.1671 44.4714 58.9421 45.6312 58.9421 47.2356C58.9421 48.84 60.1671 49.9997 61.746 49.9997C62.5626 49.9997 63.1479 49.7227 63.5018 49.2266V49.8902H64.7268V47.2356ZM60.2284 47.2356C60.2284 46.2949 60.8681 45.5217 61.9229 45.5217C62.9165 45.5217 63.6175 46.2433 63.6175 47.2356C63.6175 48.1763 62.9165 48.9495 61.9229 48.9495C60.8681 48.8915 60.2284 48.1699 60.2284 47.2356ZM19.2187 47.2356V44.581H17.9938V45.2446C17.5854 44.7485 17.0002 44.4714 16.238 44.4714C14.6591 44.4714 13.4341 45.6312 13.4341 47.2356C13.4341 48.84 14.6591 49.9997 16.238 49.9997C17.0546 49.9997 17.6399 49.7227 17.9938 49.2266V49.8902H19.2187V47.2356ZM14.6659 47.2356C14.6659 46.2949 15.3056 45.5217 16.3605 45.5217C17.3541 45.5217 18.055 46.2433 18.055 47.2356C18.055 48.1763 17.3541 48.9495 16.3605 48.9495C15.3056 48.8915 14.6659 48.1699 14.6659 47.2356Z" fill="black"/>
<path d="M43.1738 4.25879H24.7719V35.5603H43.1738V4.25879Z" fill="#FF5A00"/>
<path d="M25.9968 19.9098C25.9968 13.5503 29.1545 7.90593 34 4.25902C30.4339 1.60438 25.9355 0 21.0288 0C9.40512 0 0 8.90464 0 19.9098C0 30.915 9.40512 39.8196 21.0288 39.8196C25.9355 39.8196 30.4339 38.2152 34 35.5606C29.1477 31.9652 25.9968 26.2693 25.9968 19.9098Z" fill="#EB001B"/>
<path d="M68.0004 19.9098C68.0004 30.915 58.5953 39.8196 46.9716 39.8196C42.0648 39.8196 37.5664 38.2152 34.0004 35.5606C38.9071 31.9072 42.0036 26.2693 42.0036 19.9098C42.0036 13.5503 38.8458 7.90593 34.0004 4.25902C37.5596 1.60438 42.058 0 46.9647 0C58.5953 0 68.0004 8.96263 68.0004 19.9098Z" fill="#F79E1B"/>
</g>
<defs>
<clipPath id="clip0_850:231">
<rect width="68" height="50" fill="white"/>
</clipPath>
</defs>
</svg>
