<svg width="80" height="50" viewBox="0 0 80 50" fill="none" xmlns="http://www.w3.org/2000/svg">
<path d="M30.0713 34.8732L33.4928 15.2972H38.9654L35.5414 34.8732H30.0713ZM55.3134 15.7192C54.2294 15.3226 52.5303 14.897 50.4087 14.897C45.0009 14.897 41.192 17.5521 41.1593 21.3574C41.1289 24.1703 43.8788 25.7396 45.9546 26.6759C48.085 27.6357 48.801 28.2475 48.7907 29.1042C48.7771 30.4165 47.0896 31.0157 45.5165 31.0157C43.3262 31.0157 42.1625 30.719 40.3652 29.9884L39.6598 29.6773L38.8919 34.0595C40.1701 34.6062 42.5337 35.0794 44.9881 35.104C50.7409 35.104 54.4755 32.4792 54.5179 28.4155C54.5383 26.1885 53.0804 24.494 49.9229 23.0967C48.0101 22.1911 46.8386 21.5868 46.851 20.6698C46.851 19.8561 47.8426 18.986 49.9854 18.986C51.7747 18.9589 53.0713 19.3394 54.0814 19.736L54.5718 19.9619L55.3134 15.7192ZM69.3965 15.2969H65.1678C63.8578 15.2969 62.8773 15.6455 62.3021 16.9203L54.1744 34.8603H59.9212C59.9212 34.8603 60.8606 32.4482 61.0731 31.9185C61.7011 31.9185 67.2839 31.9269 68.0819 31.9269C68.2456 32.6123 68.7478 34.8603 68.7478 34.8603H73.8259L69.3965 15.2963V15.2969ZM62.687 27.9379C63.1398 26.81 64.8676 22.4655 64.8676 22.4655C64.8354 22.5176 65.3169 21.3321 65.5931 20.5971L65.9629 22.2849C65.9629 22.2849 67.0108 26.9578 67.2299 27.9376H62.687V27.9379ZM25.4255 15.2969L20.0677 28.6469L19.4969 25.934C18.4993 22.8066 15.3918 19.4183 11.9176 17.722L16.8168 34.842L22.607 34.8357L31.2228 15.2967L25.4255 15.2966" fill="#0E4595"/>
<path d="M15.0683 15.2959H6.24353L6.17358 15.7032C13.0391 17.3236 17.5818 21.2395 19.4679 25.9452L17.5491 16.9492C17.2179 15.7096 16.2571 15.3396 15.0685 15.2964" fill="#F2AE14"/>
</svg>
